<?xml version="1.0" standalone="no"?>
<!DOCTYPE svg PUBLIC "-//W3C//DTD SVG 20010904//EN"
 "http://www.w3.org/TR/2001/REC-SVG-20010904/DTD/svg10.dtd">
<svg version="1.0" xmlns="http://www.w3.org/2000/svg"
 width="16.000000pt" height="16.000000pt" viewBox="0 0 16.000000 16.000000"
 preserveAspectRatio="xMidYMid meet">
<metadata>
Created by potrace 1.11, written by Peter Selinger 2001-2013
</metadata>
<g transform="translate(0.000000,16.000000) scale(0.001778,-0.001778)"
fill="#000000" stroke="none">
<path d="M4376 8743 c-1 -1 -51 -5 -111 -8 -116 -6 -156 -10 -245 -20 -30 -4
-66 -8 -80 -10 -14 -1 -44 -6 -68 -10 -23 -4 -52 -8 -65 -10 -31 -4 -89 -15
-107 -20 -8 -2 -31 -7 -50 -10 -122 -20 -523 -135 -623 -179 -18 -7 -48 -19
-67 -26 -19 -7 -59 -24 -88 -37 -29 -12 -55 -23 -58 -23 -3 0 -77 -36 -164
-79 -132 -66 -218 -114 -388 -216 -9 -6 -44 -28 -76 -50 -33 -22 -66 -44 -75
-50 -9 -5 -28 -19 -42 -30 -15 -11 -39 -29 -54 -40 -50 -36 -139 -104 -165
-127 -14 -13 -45 -38 -68 -57 -64 -52 -184 -164 -286 -270 -150 -155 -156
-161 -156 -168 0 -3 -8 -13 -18 -22 -27 -25 -91 -104 -185 -231 -48 -63 -91
-121 -97 -127 -6 -7 -8 -13 -5 -13 3 0 -4 -9 -15 -20 -11 -11 -20 -26 -20 -34
0 -8 -3 -16 -8 -18 -15 -6 -170 -265 -218 -363 -10 -22 -27 -52 -37 -67 -10
-16 -16 -28 -13 -28 2 0 -10 -30 -28 -67 -19 -38 -43 -93 -56 -123 -12 -30
-30 -73 -40 -95 -9 -22 -23 -58 -30 -80 -7 -22 -18 -53 -25 -70 -14 -33 -53
-150 -60 -181 -2 -10 -9 -35 -15 -54 -14 -41 -60 -216 -65 -245 -2 -11 -13
-67 -24 -125 -12 -58 -23 -125 -26 -149 -3 -24 -7 -51 -9 -60 -4 -14 -13 -84
-22 -181 -1 -19 -6 -74 -9 -123 -3 -48 -8 -118 -11 -155 -8 -113 -2 -387 11
-496 3 -21 8 -62 11 -90 3 -28 7 -62 9 -76 11 -87 16 -118 20 -140 3 -14 7
-36 10 -50 7 -52 37 -189 62 -285 14 -55 26 -104 27 -110 6 -31 91 -295 107
-330 4 -11 25 -63 45 -115 20 -52 39 -99 42 -105 4 -5 7 -12 7 -15 2 -14 116
-246 164 -334 62 -113 155 -262 230 -370 42 -59 83 -118 91 -130 8 -11 19 -26
25 -32 5 -6 21 -26 35 -44 23 -32 103 -128 160 -194 53 -61 308 -314 370 -366
35 -30 74 -64 85 -75 12 -11 48 -40 81 -65 32 -25 61 -47 64 -50 3 -4 28 -22
55 -41 28 -18 52 -37 55 -40 11 -12 190 -129 295 -191 116 -69 120 -71 242
-132 43 -21 81 -43 84 -48 3 -5 9 -9 13 -8 4 1 35 -10 69 -26 34 -16 64 -29
67 -29 6 -2 53 -21 95 -39 154 -68 520 -180 689 -212 12 -2 35 -7 51 -10 17
-4 39 -8 50 -10 11 -2 34 -5 50 -8 197 -33 222 -36 425 -53 110 -9 533 -9 630
1 41 4 99 9 128 11 29 3 65 7 80 10 15 2 52 7 82 11 30 3 58 8 61 10 3 1 28 6
55 10 27 3 52 8 55 10 4 2 25 6 46 9 21 3 86 16 143 31 58 14 112 27 120 29 8
2 43 12 78 23 34 11 62 18 62 16 0 -3 14 2 30 11 17 9 30 13 30 9 0 -4 7 0 17
7 9 8 17 12 17 10 1 -2 26 4 56 14 30 11 57 20 60 20 6 2 11 4 130 52 140 57
417 188 430 203 3 4 20 12 38 19 17 8 32 17 32 20 0 4 16 13 35 21 19 8 35 17
35 21 0 4 10 11 22 15 24 7 322 205 350 233 28 26 47 41 53 41 4 0 12 6 19 12
7 7 31 27 52 43 140 108 554 514 554 542 0 3 8 13 18 22 47 43 312 400 312
420 0 5 6 16 13 23 16 17 67 96 67 104 0 3 8 18 19 32 101 146 335 670 385
867 2 6 6 17 9 25 10 23 68 241 73 275 3 17 15 66 26 110 11 44 22 88 24 98 2
10 5 26 8 35 3 9 7 35 11 57 8 53 14 94 20 125 26 139 26 747 0 960 -3 19 -7
57 -9 83 -3 26 -7 60 -10 75 -3 15 -8 45 -11 67 -16 103 -26 159 -31 177 -3 9
-7 27 -10 40 -2 13 -7 37 -10 53 -4 17 -8 37 -9 45 -1 8 -5 22 -7 30 -5 12
-59 211 -64 230 0 3 -3 12 -7 20 -7 18 -30 91 -33 105 -3 10 -33 96 -52 145
-5 14 -10 28 -11 32 -2 7 -34 83 -61 143 -40 92 -164 338 -209 415 -69 120
-201 324 -212 328 -5 2 -9 10 -9 17 0 7 -3 15 -7 17 -5 2 -42 48 -83 103 -41
55 -82 107 -90 115 -9 8 -23 25 -32 38 -57 84 -351 379 -489 491 -30 25 -58
49 -64 55 -5 6 -48 40 -95 76 -47 35 -86 68 -88 72 -2 4 -8 8 -12 8 -5 0 -42
24 -83 53 -95 66 -191 127 -327 205 -25 14 -108 56 -185 94 -77 38 -157 78
-178 89 -22 10 -42 19 -47 19 -4 0 -29 10 -56 22 -27 12 -53 23 -59 24 -5 1
-35 12 -65 24 -122 49 -276 96 -480 146 -139 34 -140 35 -175 39 -16 3 -41 7
-55 10 -14 3 -41 8 -60 11 -19 3 -46 7 -60 10 -14 3 -43 7 -65 9 -22 3 -62 7
-90 10 -27 3 -66 8 -85 11 -67 10 -516 24 -524 17z"/>
</g>
</svg>
